<svg viewBox="237.355 268.5771 575.2899 185.8458" width="5000" height="1615.2360748902422" xmlns="http://www.w3.org/2000/svg" xmlns:xlink="http://www.w3.org/1999/xlink" preserveAspectRatio="none"><defs></defs><style>.a-dtXONrIXcolors-0 {fill:#4654A3;fill-opacity:1;}.aa7YzVZvtxzvcolor {fill:#4654A3;fill-opacity:1;}.aa7YzVZvtxzvstrokeColor-str {stroke:#FEB7C7;stroke-opacity:1;}.aD6z1nYkhcolor {fill:#F95B3D;fill-opacity:1;}.ashadowbhm3mRR9vr-floo {flood-color:#4654A3;flood-opacity:1;}.aZpFkgV9uR-color {fill:#F95B3D;fill-opacity:1;}.aZpFkgV9uR-strokeColor-str {stroke:#FEB7C7;stroke-opacity:1;}.icon3-str {stroke:#FEB7C7;stroke-opacity:1;}</style><defs>
      <filter
        x="237.355"
        y="268.5771"
        width="169.7044"
        height="147"
        id="ODm0VVLJc"
        filterUnits="userSpaceOnUse"
        primitiveUnits="userSpaceOnUse"
        color-interpolation-filters="sRGB">
        <feMerge><feMergeNode in="SourceGraphic" /></feMerge>
      </filter></defs><g opacity="1" transform="rotate(0 237.355 268.5771)">
<svg width="169.7044" height="147" x="237.355" y="268.5771" version="1.1" preserveAspectRatio="none" viewBox="5.900000095367432 11.800000190734863 88.19999694824219 76.39999389648438">
  <g transform="matrix(1 0 0 1 0 0)" class="a-dtXONrIXcolors-0"><polygon points="5.9,88.2 50,11.8 94.1,88.2 "></polygon></g>
</svg>
</g><g opacity="1" transform="rotate(0 440.5437 268.5771)">
<svg width="347.4165" height="93" x="440.5437" y="268.5771" version="1.1" preserveAspectRatio="none" viewBox="-0.36 -28 104.60000000000001 28">
  <g transform="matrix(1 0 0 1 0 0)" class="aD6z1nYkhcolor"><path id="id-D6z1nYkh4" d="M24.24 0L21.76-6L8.76-6L6.28 0L-0.36 0L12.12-28L18.52-28L31.04 0L24.24 0ZM10.84-10.92L19.72-10.92L15.28-21.64L10.84-10.92Z M31.96 0L31.96-28L38.44-28L38.44-5.28L52.48-5.28L52.48 0L31.96 0Z M75.28-22.80L60.60-22.80L60.60-15.40L73.56-15.40L73.56-10.20L60.60-10.20L60.60 0L54.12 0L54.12-28L75.28-28L75.28-22.80Z M97.44 0L94.96-6L81.96-6L79.48 0L72.84 0L85.32-28L91.72-28L104.24 0L97.44 0ZM84.04-10.92L92.92-10.92L88.48-21.64L84.04-10.92Z"/></g>
</svg>
</g><g opacity="1" transform="rotate(0 237.355 424.1174)">
<svg width="575.2899" height="30.3055" x="237.355" y="424.1174" version="1.1" preserveAspectRatio="none" viewBox="2.8 -36 694.8000000000001 36.6">
  <g transform="matrix(1 0 0 1 0 0)" class="aa7YzVZvtxzvcolor"><path id="id-a7YzVZvtxzv20" d="M11.24 0L2.80 0L2.80-28.80L11.24-28.80Q11.76-28.80 12.90-28.78Q14.04-28.76 15.08-28.60L15.08-28.60Q18.26-28.14 20.35-26.16Q22.44-24.18 23.46-21.13Q24.48-18.08 24.48-14.40L24.48-14.40Q24.48-10.70 23.46-7.65Q22.44-4.60 20.35-2.63Q18.26-0.66 15.08-0.20L15.08-0.20Q14.06-0.06 12.89-0.03Q11.72 0 11.24 0L11.24 0ZM4.60-27.12L4.60-1.68L11.24-1.68Q12.20-1.68 13.17-1.74Q14.14-1.80 14.80-1.92L14.80-1.92Q17.64-2.40 19.37-4.11Q21.10-5.82 21.89-8.47Q22.68-11.12 22.68-14.40L22.68-14.40Q22.68-17.68 21.89-20.33Q21.10-22.98 19.37-24.69Q17.64-26.40 14.80-26.88L14.80-26.88Q14.14-27 13.14-27.06Q12.14-27.12 11.24-27.12L11.24-27.12L4.60-27.12Z M47.32-33.60L44.92-33.60L44.92-36L47.32-36L47.32-33.60ZM46.96 0L45.28 0L45.28-28.80L46.96-28.80L46.96 0Z M73.32 0.56L73.32 0.56Q70.72 0.56 68.74-0.96Q66.76-2.48 66.16-5L66.16-5L67.88-5.40Q68.34-3.58 69.82-2.35Q71.30-1.12 73.40-1.12L73.40-1.12Q74.70-1.12 76-1.72Q77.30-2.32 78.08-3.72L78.08-3.72Q78.62-4.72 78.71-5.82Q78.80-6.92 78.80-8.48L78.80-8.48L78.80-28.80L80.48-28.80L80.48-8.48Q80.48-7.38 80.46-6.43Q80.44-5.48 80.25-4.60Q80.06-3.72 79.56-2.84L79.56-2.84Q78.60-1.16 76.95-0.30Q75.30 0.56 73.32 0.56Z M104.96-33.60L102.56-33.60L102.56-36L104.96-36L104.96-33.60ZM104.60 0L102.92 0L102.92-28.80L104.60-28.80L104.60 0Z M136.44 0L134.76 0L134.76-27.12L124.20-27.12L124.20-28.80L147-28.80L147-27.12L136.44-27.12L136.44 0Z M165.20 0L163.40 0L173.88-28.80L175.68-28.80L186.16 0L184.36 0L174.16-28.04L175.36-28.04L165.20 0ZM182.12-7.48L167.40-7.48L167.40-9.08L182.12-9.08L182.12-7.48Z M222.16 0L206.16 0L206.16-28.80L207.84-28.80L207.84-1.68L222.16-1.68L222.16 0Z M272 0L263.56 0L263.56-28.80L272-28.80Q272.52-28.80 273.66-28.78Q274.80-28.76 275.84-28.60L275.84-28.60Q279.02-28.14 281.11-26.16Q283.20-24.18 284.22-21.13Q285.24-18.08 285.24-14.40L285.24-14.40Q285.24-10.70 284.22-7.65Q283.20-4.60 281.11-2.63Q279.02-0.66 275.84-0.20L275.84-0.20Q274.82-0.06 273.65-0.03Q272.48 0 272 0L272 0ZM265.36-27.12L265.36-1.68L272-1.68Q272.96-1.68 273.93-1.74Q274.90-1.80 275.56-1.92L275.56-1.92Q278.40-2.40 280.13-4.11Q281.86-5.82 282.65-8.47Q283.44-11.12 283.44-14.40L283.44-14.40Q283.44-17.68 282.65-20.33Q281.86-22.98 280.13-24.69Q278.40-26.40 275.56-26.88L275.56-26.88Q274.90-27 273.90-27.06Q272.90-27.12 272-27.12L272-27.12L265.36-27.12Z M308.08-33.60L305.68-33.60L305.68-36L308.08-36L308.08-33.60ZM307.72 0L306.04 0L306.04-28.80L307.72-28.80L307.72 0Z M346.12 0L330.12 0L330.12-28.80L331.80-28.80L331.80-1.68L346.12-1.68L346.12 0Z M398.84 0.60L398.84 0.60Q394.54 0.60 391.67-1.32Q388.80-3.24 387.36-6.62Q385.92-10 385.92-14.40L385.92-14.40Q385.92-18.80 387.36-22.18Q388.80-25.56 391.67-27.48Q394.54-29.40 398.84-29.40L398.84-29.40Q403.14-29.40 406.01-27.48Q408.88-25.56 410.32-22.18Q411.76-18.80 411.76-14.40L411.76-14.40Q411.76-10 410.32-6.62Q408.88-3.24 406.01-1.32Q403.14 0.60 398.84 0.60ZM398.84-1.08L398.84-1.08Q402.54-1.08 405.01-2.79Q407.48-4.50 408.72-7.50Q409.96-10.50 409.96-14.40L409.96-14.40Q409.96-18.30 408.72-21.31Q407.48-24.32 405.01-26.02Q402.54-27.72 398.84-27.72L398.84-27.72Q395.14-27.72 392.69-26.02Q390.24-24.32 389.00-21.31Q387.76-18.30 387.72-14.40L387.72-14.40Q387.68-10.50 388.92-7.50Q390.16-4.50 392.65-2.79Q395.14-1.08 398.84-1.08Z M433.44 0L431.76 0L431.76-28.80L433.44-28.80L433.44-15.04L447.68-28.80L450-28.80L435.88-15.04L451.28 0L448.96 0L433.44-15.04L433.44 0Z M481.08 0.60L481.08 0.60Q477.88 0.60 475.40-0.74Q472.92-2.08 471.50-4.51Q470.08-6.94 470.08-10.20L470.08-10.20L470.08-28.80L471.76-28.80L471.76-10.76Q471.76-8.10 472.66-6.23Q473.56-4.36 474.98-3.21Q476.40-2.06 478.02-1.53Q479.64-1 481.08-1L481.08-1Q482.52-1 484.14-1.53Q485.76-2.06 487.18-3.21Q488.60-4.36 489.50-6.23Q490.40-8.10 490.40-10.76L490.40-10.76L490.40-28.80L492.08-28.80L492.08-10.20Q492.08-6.96 490.66-4.53Q489.24-2.10 486.76-0.75Q484.28 0.60 481.08 0.60Z M530.08 0L514.08 0L514.08-28.80L515.76-28.80L515.76-1.68L530.08-1.68L530.08 0Z M560.48 0.60L560.48 0.60Q557.28 0.60 554.80-0.74Q552.32-2.08 550.90-4.51Q549.48-6.94 549.48-10.20L549.48-10.20L549.48-28.80L551.16-28.80L551.16-10.76Q551.16-8.10 552.06-6.23Q552.96-4.36 554.38-3.21Q555.80-2.06 557.42-1.53Q559.04-1 560.48-1L560.48-1Q561.92-1 563.54-1.53Q565.16-2.06 566.58-3.21Q568-4.36 568.90-6.23Q569.80-8.10 569.80-10.76L569.80-10.76L569.80-28.80L571.48-28.80L571.48-10.20Q571.48-6.96 570.06-4.53Q568.64-2.10 566.16-0.75Q563.68 0.60 560.48 0.60Z M594.76 0L593.08 0L593.08-28.80L594.76-28.80L612.28-3L612.28-28.80L613.96-28.80L613.96 0L612.28 0L594.76-25.84L594.76 0Z M646.56 0.60L646.56 0.60Q643.36 0.60 640.88-0.74Q638.40-2.08 636.98-4.51Q635.56-6.94 635.56-10.20L635.56-10.20L635.56-28.80L637.24-28.80L637.24-10.76Q637.24-8.10 638.14-6.23Q639.04-4.36 640.46-3.21Q641.88-2.06 643.50-1.53Q645.12-1 646.56-1L646.56-1Q648-1 649.62-1.53Q651.24-2.06 652.66-3.21Q654.08-4.36 654.98-6.23Q655.88-8.10 655.88-10.76L655.88-10.76L655.88-28.80L657.56-28.80L657.56-10.20Q657.56-6.96 656.14-4.53Q654.72-2.10 652.24-0.75Q649.76 0.60 646.56 0.60Z M697.60 0L678.36 0L678.36-0.60L695.12-27.12L678.36-27.12L678.36-28.80L697.60-28.80L697.60-28.12L680.92-1.64L697.60-1.64L697.60 0Z"/></g>
</svg>
</g><g opacity="1" transform="rotate(0 415.859 361.5771)">
<svg width="396.7859" height="54" x="415.859" y="361.5771" version="1.1" preserveAspectRatio="none" viewBox="0.2 -28.2 208.68000000000004 28.4">
  <g transform="matrix(1 0 0 1 0 0)" class="aZpFkgV9uR-color"><path id="id-ZpFkgV9uR-7" d="M25.80 0L22.20-7.88L5.96-7.88L2.40 0L0.20 0L13.08-28L15.12-28L28 0L25.80 0ZM6.76-9.60L21.44-9.60L14.08-25.76L6.76-9.60Z M33.48 0L33.48-28L35.52-28L35.52-1.84L51.64-1.84L51.64 0L33.48 0Z M85.76 0L83.76 0L83.72-23.96L72-3.72L71-3.72L59.28-23.88L59.28 0L57.28 0L57.28-28L59-28L71.52-6.36L84.04-28L85.72-28L85.76 0Z M116.84 0L113.24-7.88L97-7.88L93.44 0L91.24 0L104.12-28L106.16-28L119.04 0L116.84 0ZM97.80-9.60L112.48-9.60L105.12-25.76L97.80-9.60Z M145.28-28L147.32-28L147.32 0L145.64 0L126.56-24.32L126.56 0L124.52 0L124.52-28L126.24-28L145.28-3.68L145.28-28Z M169.32 0.20Q165.20 0.20 161.90-1.64Q158.60-3.48 156.70-6.72Q154.80-9.96 154.80-14L154.80-14Q154.80-18.04 156.70-21.28Q158.60-24.52 161.90-26.36Q165.20-28.20 169.32-28.20L169.32-28.20Q172.36-28.20 174.92-27.22Q177.48-26.24 179.28-24.32L179.28-24.32L178.00-23Q174.64-26.32 169.40-26.32L169.40-26.32Q165.88-26.32 163.00-24.72Q160.12-23.12 158.48-20.30Q156.84-17.48 156.84-14L156.84-14Q156.84-10.52 158.48-7.70Q160.12-4.88 163.00-3.28Q165.88-1.68 169.40-1.68L169.40-1.68Q174.60-1.68 178.00-5.04L178.00-5.04L179.28-3.72Q177.48-1.80 174.90-0.80Q172.32 0.20 169.32 0.20L169.32 0.20Z M206.68 0L203.08-7.88L186.84-7.88L183.28 0L181.08 0L193.96-28L196.00-28L208.88 0L206.68 0ZM187.64-9.60L202.32-9.60L194.96-25.76L187.64-9.60Z"/></g>
</svg>
</g></svg>